<?xml version="1.0" encoding="utf-8"?>
<!-- Generator: Adobe Illustrator 16.0.4, SVG Export Plug-In . SVG Version: 6.00 Build 0)  -->
<!DOCTYPE svg PUBLIC "-//W3C//DTD SVG 1.1//EN" "http://www.w3.org/Graphics/SVG/1.1/DTD/svg11.dtd">
<svg version="1.1" id="Layer_1" xmlns="http://www.w3.org/2000/svg" xmlns:xlink="http://www.w3.org/1999/xlink" x="0px" y="0px"
	 width="600px" height="600px" viewBox="0 0 600 600" enable-background="new 0 0 600 600" xml:space="preserve">
<path d="M300.485,212.963c-48.35,0-87.676,39.326-87.676,87.677c0,48.32,39.326,87.676,87.676,87.676
	c48.35,0,87.675-39.326,87.675-87.676C388.16,252.289,348.835,212.963,300.485,212.963z M300.485,421.187
	c-66.489,0-120.547-54.088-120.547-120.547c0-66.49,54.088-120.548,120.547-120.548c66.458,0,120.546,54.088,120.546,120.548
	C421.031,367.128,366.974,421.187,300.485,421.187z"/>
<path d="M553.86,435.142c0,16.645-13.537,30.152-30.151,30.152H77.261c-16.615,0-30.152-13.537-30.152-30.152V166.136
	c0-16.615,13.537-30.151,30.152-30.151h9.204c0,0,21.456,0.318,21.456-21.426c0-21.785,0-8.248,0-8.248V84.706h92.697l-0.12,21.605
	c0,0-0.03-13.537-0.03,8.218c0,21.774,21.396,21.426,21.396,21.426h301.814c16.645,0,30.152,13.537,30.152,30.152v269.035H553.86z
	 M523.709,103.083h-290.19V82.226c0-16.764-13.657-30.421-30.421-30.421h-97.627c-16.764,0-30.421,13.657-30.421,30.421v20.978
	c-33.738,1.195-60.812,28.927-60.812,62.933v269.005c0,34.754,28.269,63.053,63.053,63.053h446.418
	c34.783,0,63.053-28.299,63.053-63.053V166.136C586.731,131.353,558.462,103.083,523.709,103.083z"/>
</svg>
