<?xml version="1.0" encoding="utf-8"?>
<!-- Generator: Adobe Illustrator 16.0.4, SVG Export Plug-In . SVG Version: 6.00 Build 0)  -->
<!DOCTYPE svg PUBLIC "-//W3C//DTD SVG 1.1//EN" "http://www.w3.org/Graphics/SVG/1.1/DTD/svg11.dtd">
<svg version="1.1" id="Layer_1" xmlns="http://www.w3.org/2000/svg" xmlns:xlink="http://www.w3.org/1999/xlink" x="0px" y="0px"
	 width="600px" height="700px" viewBox="0 0 600 700" enable-background="new 0 0 600 700" xml:space="preserve">
<path d="M300.247,167.158c-48.35,0-87.676,39.326-87.676,87.677c0,48.32,39.326,87.677,87.676,87.677
	c48.351,0,87.675-39.326,87.675-87.677S348.598,167.158,300.247,167.158z M300.247,375.383
	c-66.489,0-120.547-54.089-120.547-120.548c0-66.49,54.088-120.548,120.547-120.548c66.458,0,120.546,54.088,120.546,120.548
	C420.793,321.323,366.736,375.383,300.247,375.383z"/>
<path d="M553.623,389.336c0,16.646-13.537,30.152-30.152,30.152H77.023c-16.615,0-30.152-13.537-30.152-30.152V120.331
	c0-16.615,13.537-30.151,30.152-30.151h9.204c0,0,21.456,0.318,21.456-21.426c0-21.785,0-8.248,0-8.248V38.901h92.697l-0.12,21.605
	c0,0-0.03-13.537-0.03,8.218c0,21.774,21.396,21.426,21.396,21.426h301.813c16.646,0,30.152,13.537,30.152,30.152v269.034H553.623z
	 M523.471,57.278H233.281V36.421C233.281,19.657,219.624,6,202.86,6h-97.627C88.469,6,74.812,19.657,74.812,36.421v20.978
	C41.074,58.594,14,86.326,14,120.332v269.004c0,34.756,28.269,63.055,63.053,63.055h446.417c34.783,0,63.053-28.299,63.053-63.055
	V120.331C586.492,85.548,558.225,57.278,523.471,57.278z"/>
<rect x="14.762" y="485" fill="none" width="572" height="431.572"/>
<text transform="matrix(1 0 0 1 14.7622 694.4805)"><tspan x="0" y="0" font-family="'FiraSans-Bold'" font-size="276" letter-spacing="1">M</tspan><tspan x="220.069" y="0" font-family="'FiraSans-Light'" font-size="276" letter-spacing="1">H</tspan><tspan x="406.402" y="0" font-family="'FiraSans-Bold'" font-size="276">P</tspan></text>
</svg>
